<svg width="104" height="96" viewBox="0 0 104 96" fill="none" xmlns="http://www.w3.org/2000/svg">
<rect x="4" width="96" height="96" rx="48" fill="#D9D9D9"/>
<path d="M15.0852 34.5682V26.4545H53.3125V34.5682H39.0625V73H29.3352V34.5682H15.0852ZM67.2273 73.5682C64.5758 73.5682 62.1742 72.8864 60.0227 71.5227C57.8864 70.1439 56.1894 68.1212 54.9318 65.4545C53.6894 62.7727 53.0682 59.4848 53.0682 55.5909C53.0682 51.5909 53.7121 48.2652 55 45.6136C56.2879 42.947 58 40.9545 60.1364 39.6364C62.2879 38.303 64.6439 37.6364 67.2045 37.6364C69.1591 37.6364 70.7879 37.9697 72.0909 38.6364C73.4091 39.2879 74.4697 40.1061 75.2727 41.0909C76.0909 42.0606 76.7121 43.0152 77.1364 43.9545H77.4318V26.4545H87.0909V73H77.5455V67.4091H77.1364C76.6818 68.3788 76.0379 69.3409 75.2045 70.2955C74.3864 71.2348 73.3182 72.0152 72 72.6364C70.697 73.2576 69.1061 73.5682 67.2273 73.5682ZM70.2955 65.8636C71.8561 65.8636 73.1742 65.4394 74.25 64.5909C75.3409 63.7273 76.1742 62.5227 76.75 60.9773C77.3409 59.4318 77.6364 57.6212 77.6364 55.5455C77.6364 53.4697 77.3485 51.6667 76.7727 50.1364C76.197 48.6061 75.3636 47.4242 74.2727 46.5909C73.1818 45.7576 71.8561 45.3409 70.2955 45.3409C68.7045 45.3409 67.3636 45.7727 66.2727 46.6364C65.1818 47.5 64.3561 48.697 63.7955 50.2273C63.2348 51.7576 62.9545 53.5303 62.9545 55.5455C62.9545 57.5758 63.2348 59.3712 63.7955 60.9318C64.3712 62.4773 65.197 63.6894 66.2727 64.5682C67.3636 65.4318 68.7045 65.8636 70.2955 65.8636Z" fill="#1E1E1E"/>
</svg>
